<svg id="Layer_1" data-name="Layer 1" xmlns="http://www.w3.org/2000/svg" xmlns:xlink="http://www.w3.org/1999/xlink" viewBox="0 0 200 200"><defs><style>.cls-1{fill:url(#linear-gradient);}.cls-2{fill:url(#linear-gradient-2);}.cls-3{fill:#fff;}</style><linearGradient id="linear-gradient" x1="28.46" y1="28.46" x2="169.72" y2="169.71" gradientUnits="userSpaceOnUse"><stop offset="0" stop-color="#e57373"/><stop offset="1" stop-color="#e53935"/></linearGradient><linearGradient id="linear-gradient-2" x1="64.69" y1="55.39" x2="176.09" y2="166.78" gradientUnits="userSpaceOnUse"><stop offset="0" stop-opacity="0.05"/><stop offset="1" stop-opacity="0.2"/></linearGradient></defs><title>gt-logo</title><path class="cls-1" d="M200,100a100.28,100.28,0,0,1-2.6,22.74c-0.21.92-.44,1.83-0.68,2.74-0.19.72-.38,1.44-0.59,2.16s-0.42,1.43-.64,2.14c-0.14.45-.28,0.9-0.43,1.34s-0.32,1-.48,1.44c-0.11.31-.21,0.61-0.32,0.91-0.16.45-.32,0.89-0.49,1.33s-0.34.94-.54,1.41c-0.08.24-.17,0.47-0.26,0.69-0.21.54-.43,1.07-0.65,1.6s-0.54,1.27-.82,1.9-0.59,1.31-.89,2a0.2,0.2,0,0,1,0,.08c-0.28.61-.58,1.22-0.88,1.82-0.12.26-.25,0.52-0.38,0.77-0.31.61-.62,1.21-0.94,1.8a1,1,0,0,1-.13.24q-0.57,1.11-1.2,2.19c-0.32.57-.65,1.14-1,1.7a97.24,97.24,0,0,1-6,9,100.15,100.15,0,0,1-45.22,33.81A99,99,0,0,1,114,199a100.54,100.54,0,0,1-14,1c-1,0-1.92,0-2.87,0A100.1,100.1,0,1,1,199.68,92Q200,95.94,200,100Z"/><path class="cls-2" d="M200,100a100.28,100.28,0,0,1-2.6,22.74c-0.21.92-.44,1.83-0.68,2.74-0.19.72-.38,1.44-0.59,2.16s-0.42,1.43-.64,2.14c-0.14.45-.28,0.9-0.43,1.34s-0.32,1-.48,1.44c-0.11.31-.21,0.61-0.32,0.91-0.16.45-.32,0.89-0.49,1.33s-0.34.94-.54,1.41c-0.08.24-.17,0.47-0.26,0.69-0.21.54-.43,1.07-0.65,1.6s-0.54,1.27-.82,1.9-0.59,1.31-.89,2a0.2,0.2,0,0,1,0,.08c-0.28.61-.58,1.22-0.88,1.82-0.12.26-.25,0.52-0.38,0.77-0.31.61-.62,1.21-0.94,1.8a1,1,0,0,1-.13.24q-0.57,1.11-1.2,2.19c-0.32.57-.65,1.14-1,1.7a97.24,97.24,0,0,1-6,9,100.15,100.15,0,0,1-45.22,33.81A99,99,0,0,1,114,199a100.54,100.54,0,0,1-14,1c-1,0-1.92,0-2.87,0l-54-71.73Q30.75,116.45,30.75,100A37.55,37.55,0,0,1,43.07,71.67,40.35,40.35,0,0,1,71.88,60.2q19,0,31.39,14.11L144,105V68.52H126.34v-7h42.91l27.74,14A99.63,99.63,0,0,1,199.68,92Q200,95.94,200,100Z"/><path class="cls-3" d="M112.61,103.11a38.08,38.08,0,0,1-13.09,26.22A40,40,0,0,1,72,139.78a40.54,40.54,0,0,1-28.81-11.56Q30.75,116.45,30.75,100a37.53,37.53,0,0,1,12.32-28.3A40.39,40.39,0,0,1,71.88,60.21q19,0,31.4,14.1a27.14,27.14,0,0,1,5,7.71H99.32a28.53,28.53,0,0,0-11.72-11A33.22,33.22,0,0,0,72,67.15,32.6,32.6,0,0,0,48.4,76.74a31.3,31.3,0,0,0-9.94,23.33,30.94,30.94,0,0,0,10,23.33,33.44,33.44,0,0,0,23.79,9.38,32.71,32.71,0,0,0,19.32-6.34q9.23-6.54,11.77-16.38H60.47v-6.95h52.14Z"/><path class="cls-3" d="M151.7,68.52v69.89H144V68.52H126.34v-7h42.91v7H151.7Z"/></svg>